<mxfile host="app.diagrams.net" modified="2020-12-02T16:22:22.416Z" agent="5.0 (X11)" etag="PblmG1aHz3ZGo6NF7_VM" version="13.10.5" type="github">
  <diagram id="vnSreKOgDY3ID4QjmNT7" name="Page-1">
    <mxGraphModel dx="1662" dy="621" grid="1" gridSize="10" guides="1" tooltips="1" connect="1" arrows="1" fold="1" page="1" pageScale="1" pageWidth="850" pageHeight="1100" math="0" shadow="0">
      <root>
        <mxCell id="0" />
        <mxCell id="1" parent="0" />
        <mxCell id="vulZ_JFEH84F024nTpnq-3" value="" style="rounded=0;orthogonalLoop=1;jettySize=auto;html=1;" edge="1" parent="1" source="vulZ_JFEH84F024nTpnq-1" target="vulZ_JFEH84F024nTpnq-2">
          <mxGeometry relative="1" as="geometry" />
        </mxCell>
        <mxCell id="vulZ_JFEH84F024nTpnq-1" value="WelcomeActivity" style="rounded=0;whiteSpace=wrap;html=1;" vertex="1" parent="1">
          <mxGeometry x="180" y="100" width="120" height="60" as="geometry" />
        </mxCell>
        <mxCell id="vulZ_JFEH84F024nTpnq-2" value="" style="whiteSpace=wrap;html=1;rounded=0;" vertex="1" parent="1">
          <mxGeometry x="170" y="230" width="120" height="60" as="geometry" />
        </mxCell>
        <mxCell id="vulZ_JFEH84F024nTpnq-8" value="" style="edgeStyle=none;rounded=0;orthogonalLoop=1;jettySize=auto;html=1;" edge="1" parent="1" source="vulZ_JFEH84F024nTpnq-4" target="vulZ_JFEH84F024nTpnq-7">
          <mxGeometry relative="1" as="geometry" />
        </mxCell>
        <mxCell id="vulZ_JFEH84F024nTpnq-4" value="MainActivity" style="whiteSpace=wrap;html=1;rounded=0;" vertex="1" parent="1">
          <mxGeometry x="338" y="100" width="120" height="60" as="geometry" />
        </mxCell>
        <mxCell id="vulZ_JFEH84F024nTpnq-6" value="LoginActivity" style="whiteSpace=wrap;html=1;rounded=0;" vertex="1" parent="1">
          <mxGeometry x="160" y="240" width="120" height="60" as="geometry" />
        </mxCell>
        <mxCell id="vulZ_JFEH84F024nTpnq-7" value="" style="whiteSpace=wrap;html=1;rounded=0;" vertex="1" parent="1">
          <mxGeometry x="353" y="230" width="120" height="60" as="geometry" />
        </mxCell>
        <mxCell id="vulZ_JFEH84F024nTpnq-9" value="" style="whiteSpace=wrap;html=1;rounded=0;" vertex="1" parent="1">
          <mxGeometry x="363" y="240" width="120" height="60" as="geometry" />
        </mxCell>
        <mxCell id="vulZ_JFEH84F024nTpnq-10" value="" style="whiteSpace=wrap;html=1;rounded=0;" vertex="1" parent="1">
          <mxGeometry x="373" y="250" width="120" height="60" as="geometry" />
        </mxCell>
        <mxCell id="vulZ_JFEH84F024nTpnq-11" value="" style="whiteSpace=wrap;html=1;rounded=0;" vertex="1" parent="1">
          <mxGeometry x="383" y="260" width="120" height="60" as="geometry" />
        </mxCell>
        <mxCell id="vulZ_JFEH84F024nTpnq-12" value="HomeFragment" style="whiteSpace=wrap;html=1;rounded=0;" vertex="1" parent="1">
          <mxGeometry x="393" y="270" width="120" height="60" as="geometry" />
        </mxCell>
        <mxCell id="vulZ_JFEH84F024nTpnq-15" value="" style="endArrow=none;dashed=1;html=1;dashPattern=1 3;strokeWidth=2;" edge="1" parent="1">
          <mxGeometry width="50" height="50" relative="1" as="geometry">
            <mxPoint x="320" y="480" as="sourcePoint" />
            <mxPoint x="320" y="40" as="targetPoint" />
          </mxGeometry>
        </mxCell>
        <mxCell id="vulZ_JFEH84F024nTpnq-16" value="&lt;div align=&quot;right&quot;&gt;Not logged-in&lt;br&gt;&lt;/div&gt;" style="text;html=1;strokeColor=none;fillColor=none;align=right;verticalAlign=middle;whiteSpace=wrap;rounded=0;" vertex="1" parent="1">
          <mxGeometry x="180" y="50" width="130" height="20" as="geometry" />
        </mxCell>
        <mxCell id="vulZ_JFEH84F024nTpnq-17" value="&lt;div align=&quot;left&quot;&gt;Logged-in&lt;/div&gt;" style="text;html=1;strokeColor=none;fillColor=none;align=left;verticalAlign=middle;whiteSpace=wrap;rounded=0;" vertex="1" parent="1">
          <mxGeometry x="328" y="50" width="130" height="20" as="geometry" />
        </mxCell>
        <mxCell id="vulZ_JFEH84F024nTpnq-19" value="" style="curved=1;endArrow=classic;html=1;exitX=0.5;exitY=1;exitDx=0;exitDy=0;entryX=0.5;entryY=1;entryDx=0;entryDy=0;" edge="1" parent="1" source="vulZ_JFEH84F024nTpnq-6" target="vulZ_JFEH84F024nTpnq-12">
          <mxGeometry width="50" height="50" relative="1" as="geometry">
            <mxPoint x="310" y="470" as="sourcePoint" />
            <mxPoint x="360" y="420" as="targetPoint" />
            <Array as="points">
              <mxPoint x="180" y="500" />
              <mxPoint x="480" y="490" />
            </Array>
          </mxGeometry>
        </mxCell>
        <mxCell id="vulZ_JFEH84F024nTpnq-20" value="The user" style="shape=umlActor;verticalLabelPosition=bottom;verticalAlign=top;html=1;outlineConnect=0;" vertex="1" parent="1">
          <mxGeometry x="170" y="400" width="30" height="60" as="geometry" />
        </mxCell>
      </root>
    </mxGraphModel>
  </diagram>
</mxfile>
